<?xml version="1.0" encoding="UTF-8" standalone="no"?>
<svg
   xmlns:dc="http://purl.org/dc/elements/1.1/"
   xmlns:cc="http://creativecommons.org/ns#"
   xmlns:rdf="http://www.w3.org/1999/02/22-rdf-syntax-ns#"
   xmlns:svg="http://www.w3.org/2000/svg"
   xmlns="http://www.w3.org/2000/svg"
   id="svg8"
   version="1.1"
   viewBox="0 0 29.104168 5.2916665"
   height="20"
   width="110">
  <defs
     id="defs2" />
  <metadata
     id="metadata5">
    <rdf:RDF>
      <cc:Work
         rdf:about="">
        <dc:format>image/svg+xml</dc:format>
        <dc:type
           rdf:resource="http://purl.org/dc/dcmitype/StillImage" />
        <dc:title></dc:title>
      </cc:Work>
    </rdf:RDF>
  </metadata>
  <g
     transform="translate(0,-291.70833)"
     id="layer1">
    <g
       id="text20"
       style="font-style:normal;font-weight:normal;font-size:10.58333302px;line-height:1.25;font-family:sans-serif;letter-spacing:0px;word-spacing:0px;fill:#000000;fill-opacity:1;stroke:none;stroke-width:0.26458332"
       aria-label="Luisa T. Schneider">
      <path
         id="path74"
         style="font-style:normal;font-variant:normal;font-weight:500;font-stretch:normal;font-size:4.23333311px;font-family:'TeX Gyre Chorus';-inkscape-font-specification:'TeX Gyre Chorus, Medium';font-variant-ligatures:normal;font-variant-caps:normal;font-variant-numeric:normal;font-feature-settings:normal;text-align:start;writing-mode:lr-tb;text-anchor:start;stroke-width:0.26458332"
         d="m 3.3394067,295.06917 -0.046567,-0.0804 c -0.2751666,0.57996 -0.3217333,0.60536 -1.0498666,0.60113 H 1.4428735 l 0.1142999,-0.11007 c 0.2243667,-0.20743 0.254,-0.26246 0.3598334,-0.70273 0.1227666,-0.52493 0.1820333,-0.75777 0.2370666,-0.92287 0.0635,-0.1778 0.1735667,-0.25823 0.3513667,-0.25823 0.055033,0 0.093133,0 0.2497666,0.008 l 0.1651,-0.23707 c -0.084667,-0.008 -0.127,-0.0127 -0.1862666,-0.0127 -0.080433,0 -0.1524,0.008 -0.2243667,0.0254 -0.1143,0.0296 -0.3175,0.17357 -0.4868333,0.3429 -0.2074333,0.21167 -0.2794,0.4064 -0.4445,1.1938 -0.1143,0.54187 -0.2243666,0.6985 -0.4910666,0.6985 -0.033867,0 -0.084667,0 -0.13123336,-0.004 -0.0592667,0.0593 -0.0846667,0.0889 -0.14816666,0.16933 l 0.41486662,-0.0127 0.6477,0.0212 0.8339666,0.0339 c 0.2201333,0 0.3132667,-0.0466 0.3894667,-0.2032 0.0508,-0.0974 0.1820333,-0.38946 0.2455333,-0.55033 z" />
      <path
         id="path76"
         style="font-style:normal;font-variant:normal;font-weight:500;font-stretch:normal;font-size:4.23333311px;font-family:'TeX Gyre Chorus';-inkscape-font-specification:'TeX Gyre Chorus, Medium';font-variant-ligatures:normal;font-variant-caps:normal;font-variant-numeric:normal;font-feature-settings:normal;text-align:start;writing-mode:lr-tb;text-anchor:start;stroke-width:0.26458332"
         d="m 5.2997706,295.33587 -0.021167,-0.0381 c -0.0762,0.0508 -0.3683,0.24553 -0.4318,0.24553 -0.055033,0 -0.059267,-0.0762 -0.059267,-0.13546 0,-0.2286 0.2159,-1.06257 0.3175,-1.35467 -0.059267,0.0339 -0.3005666,0.1524 -0.3513666,0.1778 l -0.2159,0.94403 c -0.00847,0.0296 -0.093133,0.10584 -0.1016,0.13124 -0.071967,0.0466 -0.3640667,0.2413 -0.4360333,0.2413 -0.071967,0 -0.0889,-0.0931 -0.0889,-0.1524 0,-0.16934 0.1312333,-0.635 0.2032,-0.91017 0.0254,-0.11007 0.0762,-0.30903 0.0762,-0.35983 0,-0.0381 -0.016933,-0.0593 -0.055033,-0.0593 -0.0762,0 -0.5376333,0.28363 -0.6603999,0.35137 l -0.00847,0.1143 c 0.084667,-0.0423 0.2243666,-0.12277 0.2963333,-0.12277 0.042333,0 0.055033,0.0466 0.055033,0.0804 0,0.23707 -0.2243666,0.8255 -0.2243666,1.1557 0,0.0974 0.0254,0.21167 0.1397,0.21167 0.1058333,0 0.6815666,-0.3937 0.7577666,-0.44873 -0.0127,0.0847 -0.042333,0.27516 -0.042333,0.3556 0,0.0466 0.029633,0.0889 0.084667,0.0889 0.1100667,0 0.5503333,-0.30057 0.7112,-0.42334 0.021167,-0.0127 0.046567,-0.0847 0.055033,-0.0931 z" />
      <path
         id="path78"
         style="font-style:normal;font-variant:normal;font-weight:500;font-stretch:normal;font-size:4.23333311px;font-family:'TeX Gyre Chorus';-inkscape-font-specification:'TeX Gyre Chorus, Medium';font-variant-ligatures:normal;font-variant-caps:normal;font-variant-numeric:normal;font-feature-settings:normal;text-align:start;writing-mode:lr-tb;text-anchor:start;stroke-width:0.26458332"
         d="m 6.3790058,295.4163 0.016933,-0.127 c -0.2074334,0.127 -0.4148667,0.23284 -0.4529667,0.23284 -0.046567,0 -0.080433,-0.0508 -0.080433,-0.11854 0,-0.1524 0.0508,-0.31326 0.0889,-0.47413 l 0.1312333,-0.53763 c 0.021167,-0.0889 0.055033,-0.22437 0.055033,-0.27517 0,-0.0339 -0.0127,-0.055 -0.0508,-0.055 -0.097367,0 -0.5376333,0.28786 -0.6646333,0.37253 l -0.00423,0.12277 c 0.097367,-0.055 0.2497667,-0.15664 0.3090333,-0.15664 0.046567,0 0.0508,0.0466 0.0508,0.0847 0,0.0931 -0.093133,0.4064 -0.1397,0.60113 -0.046567,0.19474 -0.1227666,0.3937 -0.1227666,0.5842 0,0.11007 0.042333,0.1778 0.1100666,0.1778 0.071967,0 0.1481667,-0.0381 0.3937,-0.19896 0.067733,-0.0466 0.1016,-0.072 0.3598333,-0.23284 z m 0.029633,-1.96426 c -0.0762,-0.12277 -0.080433,-0.13547 -0.1227667,-0.23284 -0.00423,-0.0169 -0.0127,-0.0381 -0.021167,-0.055 -0.0254,0.0212 -0.042333,0.0339 -0.059267,0.0466 -0.1143,0.0974 -0.1227667,0.1016 -0.2328334,0.1778 0.033867,0.1016 0.0635,0.1524 0.1608667,0.29633 l 0.1397,-0.127 c 0.0254,-0.0169 0.0381,-0.0296 0.1354667,-0.10583 z" />
      <path
         id="path80"
         style="font-style:normal;font-variant:normal;font-weight:500;font-stretch:normal;font-size:4.23333311px;font-family:'TeX Gyre Chorus';-inkscape-font-specification:'TeX Gyre Chorus, Medium';font-variant-ligatures:normal;font-variant-caps:normal;font-variant-numeric:normal;font-feature-settings:normal;text-align:start;writing-mode:lr-tb;text-anchor:start;stroke-width:0.26458332"
         d="m 7.6880979,294.20134 c -0.084667,-0.1016 -0.1651,-0.14394 -0.2836333,-0.14394 -0.3090333,0 -0.7069666,0.3683 -0.7069666,0.6477 0,0.13124 0.067733,0.23284 0.2285999,0.34714 0.2116667,0.14816 0.2413,0.18626 0.2413,0.2921 0,0.1524 -0.1947333,0.3302 -0.3598333,0.3302 -0.093133,0 -0.1651,-0.0508 -0.2074333,-0.14394 -0.029633,-0.0635 -0.0381,-0.127 -0.042333,-0.27093 -0.046567,0.0339 -0.080433,0.055 -0.097367,0.0677 -0.033867,0.0212 -0.071967,0.0423 -0.1100667,0.0677 0,0 -0.033867,0.0212 -0.0762,0.0508 -0.00423,0.0381 -0.00847,0.072 -0.00847,0.0974 0,0.18204 0.127,0.30904 0.3132666,0.30904 0.1312334,0 0.3132667,-0.055 0.4487333,-0.13124 0.2497667,-0.14393 0.4021667,-0.35983 0.4021667,-0.5715 0,-0.15663 -0.029633,-0.1905 -0.2667,-0.33866 -0.1439333,-0.0931 -0.2032,-0.17357 -0.2032,-0.28364 0,-0.14393 0.1227667,-0.27093 0.2667,-0.27093 0.097367,0 0.1693333,0.0466 0.2624666,0.1651 0.1439334,-0.1397 0.1439334,-0.1397 0.1989667,-0.22013 z" />
      <path
         id="path82"
         style="font-style:normal;font-variant:normal;font-weight:500;font-stretch:normal;font-size:4.23333311px;font-family:'TeX Gyre Chorus';-inkscape-font-specification:'TeX Gyre Chorus, Medium';font-variant-ligatures:normal;font-variant-caps:normal;font-variant-numeric:normal;font-feature-settings:normal;text-align:start;writing-mode:lr-tb;text-anchor:start;stroke-width:0.26458332"
         d="m 9.5266873,295.3782 v -0.12276 c -0.080433,0.0508 -0.3598333,0.24976 -0.4275666,0.24976 -0.042333,0 -0.0508,-0.055 -0.0508,-0.0931 0,-0.15663 0.1905,-0.93133 0.2413,-1.13877 0.016933,-0.0254 0.1016,-0.13123 0.1227666,-0.1524 -0.1439333,-0.0381 -0.3301999,-0.0635 -0.4995333,-0.0635 -0.2836333,0 -0.3132666,0.0296 -0.5079999,0.1651 -0.1143,0.0804 -0.2201334,0.127 -0.3005667,0.254 -0.2116667,0.3302 -0.2921,0.75777 -0.2921,1.02447 0,0.127 0.033867,0.3556 0.1820333,0.3556 0.1566334,0 0.5376333,-0.3175 0.7577667,-0.4699 l -0.029633,0.1905 c -0.0254,0.14393 -0.0508,0.27517 0.0508,0.27517 0.1058334,0 0.6307667,-0.38524 0.7535333,-0.47414 z m -0.7492999,-0.15663 c -0.127,0.0931 -0.4064,0.32173 -0.5164667,0.32173 -0.1100666,0 -0.1312333,-0.1143 -0.1312333,-0.2159 0,-0.27093 0.084667,-0.57996 0.1947333,-0.79586 0.071967,-0.14817 0.1397,-0.27094 0.3302,-0.27094 0.1058333,0 0.2370667,0.0296 0.3429,0.0508 z" />
      <path
         id="path84"
         style="font-style:normal;font-variant:normal;font-weight:500;font-stretch:normal;font-size:4.23333311px;font-family:'TeX Gyre Chorus';-inkscape-font-specification:'TeX Gyre Chorus, Medium';font-variant-ligatures:normal;font-variant-caps:normal;font-variant-numeric:normal;font-feature-settings:normal;text-align:start;writing-mode:lr-tb;text-anchor:start;stroke-width:0.26458332"
         d="m 13.199633,293.11337 -0.05503,-0.0635 c -0.173567,0.29633 -0.194734,0.3175 -0.347134,0.3175 l -0.2667,-0.008 -0.833966,-0.0339 c -0.740834,0 -1.291167,0.40216 -1.291167,0.94403 0,0.13547 0.02963,0.254 0.105833,0.40217 l 0.3175,-0.20744 c -0.08043,-0.20743 -0.09737,-0.27093 -0.09737,-0.38946 0,-0.23707 0.110066,-0.4191 0.3175,-0.51647 0.105833,-0.0508 0.262466,-0.072 0.486833,-0.072 0.0889,0 0.173567,0.004 0.385233,0.0212 l -0.3429,1.38007 c -0.1524,0.6223 -0.232833,0.72813 -0.592666,0.74506 l -0.148167,0.1651 c 1.020233,0 1.083733,-0.008 1.426633,-0.19896 l 0.0085,-0.0339 c -0.186267,0.0254 -0.4572,0.0423 -0.6858,0.0423 l -0.194733,-0.008 c 0.325966,-0.27517 0.4318,-0.42757 0.503766,-0.7493 l 0.3302,-1.32504 c 0.554567,0.0466 0.5588,0.0466 0.643467,0.0466 0.198967,0 0.2286,-0.0381 0.3302,-0.4572 z" />
      <path
         id="path86"
         style="font-style:normal;font-variant:normal;font-weight:500;font-stretch:normal;font-size:4.23333311px;font-family:'TeX Gyre Chorus';-inkscape-font-specification:'TeX Gyre Chorus, Medium';font-variant-ligatures:normal;font-variant-caps:normal;font-variant-numeric:normal;font-feature-settings:normal;text-align:start;writing-mode:lr-tb;text-anchor:start;stroke-width:0.26458332"
         d="m 13.13448,295.5687 -0.09737,-0.14393 c -0.02963,-0.0466 -0.0508,-0.0804 -0.1016,-0.16933 -0.0127,0.0127 -0.03387,0.0296 -0.05927,0.0508 -0.03387,0.0254 -0.06773,0.055 -0.1016,0.0847 l -0.0381,0.0296 -0.1143,0.0889 c 0.03387,0.0931 0.118534,0.2286 0.198967,0.32596 0.160867,-0.11853 0.198967,-0.14816 0.313267,-0.2667 z" />
      <path
         id="path88"
         style="font-style:normal;font-variant:normal;font-weight:500;font-stretch:normal;font-size:4.23333311px;font-family:'TeX Gyre Chorus';-inkscape-font-specification:'TeX Gyre Chorus, Medium';font-variant-ligatures:normal;font-variant-caps:normal;font-variant-numeric:normal;font-feature-settings:normal;text-align:start;writing-mode:lr-tb;text-anchor:start;stroke-width:0.26458332"
         d="m 15.9429,295.03107 c 0,-0.17357 -0.06773,-0.26247 -0.381,-0.508 -0.309034,-0.2413 -0.359834,-0.31327 -0.359834,-0.4953 0,-0.27517 0.207434,-0.51223 0.4572,-0.51223 0.1778,0 0.2413,0.0762 0.287867,0.34713 l 0.2794,-0.19897 c -0.0254,-0.23283 -0.1524,-0.34713 -0.376767,-0.34713 -0.436033,0 -0.931333,0.4826 -0.931333,0.9017 0,0.1905 0.0889,0.3302 0.334433,0.5207 0.287867,0.2286 0.364067,0.3429 0.364067,0.53763 0,0.3302 -0.3175,0.6223 -0.6858,0.6223 -0.182033,0 -0.3683,-0.0804 -0.4826,-0.20743 -0.0889,-0.0974 -0.122767,-0.18627 -0.156633,-0.37253 l -0.06773,0.0466 -0.186266,0.44027 c 0.148166,0.19897 0.347133,0.2921 0.6223,0.2921 0.6477,0 1.2827,-0.52917 1.2827,-1.0668 z" />
      <path
         id="path90"
         style="font-style:normal;font-variant:normal;font-weight:500;font-stretch:normal;font-size:4.23333311px;font-family:'TeX Gyre Chorus';-inkscape-font-specification:'TeX Gyre Chorus, Medium';font-variant-ligatures:normal;font-variant-caps:normal;font-variant-numeric:normal;font-feature-settings:normal;text-align:start;writing-mode:lr-tb;text-anchor:start;stroke-width:0.26458332"
         d="m 17.602101,295.39514 0.0085,-0.13547 c -0.325967,0.23283 -0.550333,0.35137 -0.6858,0.35137 -0.1524,0 -0.2413,-0.11854 -0.2413,-0.32174 0,-0.2032 0.0508,-0.47413 0.131233,-0.6731 0.08467,-0.22436 0.194734,-0.33866 0.3175,-0.33866 0.1016,0 0.156634,0.0804 0.1778,0.2667 l 0.245533,-0.14394 c 0.0042,-0.0212 0.0042,-0.0466 0.0042,-0.0466 0,-0.18204 -0.09313,-0.29634 -0.2413,-0.29634 -0.0762,0 -0.122767,0.0169 -0.275167,0.11854 -0.3175,0.19896 -0.385233,0.26246 -0.478366,0.43603 -0.118534,0.2286 -0.207434,0.58843 -0.207434,0.8509 0,0.24553 0.1143,0.38947 0.309034,0.38947 0.2032,0 0.550333,-0.16934 0.935566,-0.4572 z" />
      <path
         id="path92"
         style="font-style:normal;font-variant:normal;font-weight:500;font-stretch:normal;font-size:4.23333311px;font-family:'TeX Gyre Chorus';-inkscape-font-specification:'TeX Gyre Chorus, Medium';font-variant-ligatures:normal;font-variant-caps:normal;font-variant-numeric:normal;font-feature-settings:normal;text-align:start;writing-mode:lr-tb;text-anchor:start;stroke-width:0.26458332"
         d="m 19.498966,295.3782 0.02963,-0.12276 c -0.359833,0.21166 -0.4191,0.2413 -0.474133,0.2413 -0.0381,0 -0.0635,-0.0423 -0.0635,-0.11007 0,-0.0847 0.0254,-0.20743 0.09737,-0.4826 0.135467,-0.49953 0.2032,-0.75777 0.2032,-0.7747 0,-0.0423 -0.03387,-0.072 -0.0889,-0.072 -0.0889,0 -0.381,0.16087 -0.910166,0.50377 l 0.143933,-0.56727 c 0.1016,-0.41486 0.143933,-0.5461 0.198967,-0.65193 0.05927,-0.11853 0.148166,-0.17357 0.262466,-0.17357 0.05503,0 0.0889,0.004 0.254,0.0381 l 0.182034,-0.25823 c -0.0762,-0.0169 -0.110067,-0.0212 -0.173567,-0.0212 -0.232833,0 -0.3556,0.0635 -0.664633,0.33444 -0.220134,0.19473 -0.254,0.2667 -0.385234,0.8255 l -0.4064,1.74836 0.300567,-0.12276 0.249767,-0.98637 c 0.04233,-0.0296 0.09313,-0.0593 0.1016,-0.0635 0.2921,-0.18627 0.4699,-0.2794 0.516466,-0.2794 0.02963,0 0.0508,0.0296 0.0508,0.0677 0,0.0508 -0.01693,0.13124 -0.0762,0.35984 -0.131233,0.508 -0.182033,0.75353 -0.182033,0.86783 0,0.0508 0.01693,0.1016 0.0635,0.18203 0.232833,-0.11853 0.537633,-0.31326 0.770467,-0.4826 z" />
      <path
         id="path94"
         style="font-style:normal;font-variant:normal;font-weight:500;font-stretch:normal;font-size:4.23333311px;font-family:'TeX Gyre Chorus';-inkscape-font-specification:'TeX Gyre Chorus, Medium';font-variant-ligatures:normal;font-variant-caps:normal;font-variant-numeric:normal;font-feature-settings:normal;text-align:start;writing-mode:lr-tb;text-anchor:start;stroke-width:0.26458332"
         d="m 21.448217,295.25544 c -0.423333,0.2413 -0.440266,0.24976 -0.4826,0.24976 -0.04233,0 -0.06773,-0.0466 -0.06773,-0.1143 0,-0.0889 0.02963,-0.2286 0.110067,-0.5207 0.198966,-0.7112 0.198966,-0.7112 0.198966,-0.74083 0,-0.0466 -0.02963,-0.072 -0.08467,-0.072 -0.0635,0 -0.156634,0.0381 -0.309034,0.13547 l -0.579966,0.35983 c 0.0381,-0.1397 0.1016,-0.4064 0.1016,-0.44026 0,-0.0296 -0.0254,-0.055 -0.05503,-0.055 -0.04657,0 -0.351366,0.15664 -0.664633,0.3429 l -0.0254,0.11007 c 0.270933,-0.12277 0.287867,-0.127 0.325967,-0.127 0.02963,0 0.0508,0.0254 0.0508,0.0593 0,0.0889 -0.08043,0.44026 -0.186267,0.8255 l -0.09737,0.3429 -0.05927,0.2286 0.3175,-0.12277 0.249766,-0.99483 c 0.529167,-0.33444 0.541867,-0.33867 0.601134,-0.33867 0.02963,0 0.04657,0.0212 0.04657,0.055 0,0.0635 -0.03387,0.22437 -0.156633,0.70697 -0.09313,0.37677 -0.110067,0.44873 -0.110067,0.52917 0,0.0593 0.01693,0.1143 0.0635,0.1905 0.194734,-0.0889 0.486834,-0.27094 0.783167,-0.49107 z" />
      <path
         id="path96"
         style="font-style:normal;font-variant:normal;font-weight:500;font-stretch:normal;font-size:4.23333311px;font-family:'TeX Gyre Chorus';-inkscape-font-specification:'TeX Gyre Chorus, Medium';font-variant-ligatures:normal;font-variant-caps:normal;font-variant-numeric:normal;font-feature-settings:normal;text-align:start;writing-mode:lr-tb;text-anchor:start;stroke-width:0.26458332"
         d="m 22.815319,295.34857 v -0.12277 c -0.156633,0.127 -0.4572,0.38524 -0.6731,0.38524 -0.237067,0 -0.258233,-0.254 -0.254,-0.4191 0.09737,-0.0466 0.512233,-0.35984 0.5969,-0.42334 0.156633,-0.127 0.270933,-0.26246 0.270933,-0.46143 0,-0.1397 -0.08467,-0.24553 -0.2413,-0.24553 -0.1524,0 -0.283633,0.0762 -0.436033,0.19473 -0.372533,0.28787 -0.503767,0.762 -0.503767,1.15993 0,0.25824 0.105834,0.44027 0.364067,0.44027 0.325967,0 0.702733,-0.33443 0.8763,-0.508 z m -0.372533,-0.92287 c 0,0.3048 -0.347134,0.47837 -0.550334,0.635 0.01693,-0.21166 0.1778,-0.8128 0.4191,-0.8128 0.09313,0 0.131234,0.0847 0.131234,0.1778 z" />
      <path
         id="path98"
         style="font-style:normal;font-variant:normal;font-weight:500;font-stretch:normal;font-size:4.23333311px;font-family:'TeX Gyre Chorus';-inkscape-font-specification:'TeX Gyre Chorus, Medium';font-variant-ligatures:normal;font-variant-caps:normal;font-variant-numeric:normal;font-feature-settings:normal;text-align:start;writing-mode:lr-tb;text-anchor:start;stroke-width:0.26458332"
         d="m 23.940723,295.4163 0.01693,-0.127 c -0.207434,0.127 -0.414867,0.23284 -0.452967,0.23284 -0.04657,0 -0.08043,-0.0508 -0.08043,-0.11854 0,-0.1524 0.0508,-0.31326 0.0889,-0.47413 l 0.131233,-0.53763 c 0.02117,-0.0889 0.05503,-0.22437 0.05503,-0.27517 0,-0.0339 -0.0127,-0.055 -0.0508,-0.055 -0.09737,0 -0.537633,0.28786 -0.664633,0.37253 l -0.0042,0.12277 c 0.09737,-0.055 0.249766,-0.15664 0.309033,-0.15664 0.04657,0 0.0508,0.0466 0.0508,0.0847 0,0.0931 -0.09313,0.4064 -0.1397,0.60113 -0.04657,0.19474 -0.122767,0.3937 -0.122767,0.5842 0,0.11007 0.04233,0.1778 0.110067,0.1778 0.07197,0 0.148167,-0.0381 0.3937,-0.19896 0.06773,-0.0466 0.1016,-0.072 0.359833,-0.23284 z m 0.02963,-1.96426 c -0.0762,-0.12277 -0.08043,-0.13547 -0.122767,-0.23284 -0.0042,-0.0169 -0.0127,-0.0381 -0.02117,-0.055 -0.0254,0.0212 -0.04233,0.0339 -0.05927,0.0466 -0.1143,0.0974 -0.122767,0.1016 -0.232834,0.1778 0.03387,0.1016 0.0635,0.1524 0.160867,0.29633 l 0.1397,-0.127 c 0.0254,-0.0169 0.0381,-0.0296 0.135467,-0.10583 z" />
      <path
         id="path100"
         style="font-style:normal;font-variant:normal;font-weight:500;font-stretch:normal;font-size:4.23333311px;font-family:'TeX Gyre Chorus';-inkscape-font-specification:'TeX Gyre Chorus, Medium';font-variant-ligatures:normal;font-variant-caps:normal;font-variant-numeric:normal;font-feature-settings:normal;text-align:start;writing-mode:lr-tb;text-anchor:start;stroke-width:0.26458332"
         d="m 25.740883,295.37397 0.01693,-0.13123 c -0.05503,0.0339 -0.09737,0.0635 -0.118533,0.0762 -0.232834,0.16086 -0.351367,0.2286 -0.389467,0.2286 -0.03387,0 -0.05927,-0.0466 -0.05927,-0.11007 0,-0.1397 0.3556,-1.67217 0.4445,-1.93463 0.09313,-0.254 0.186267,-0.35137 0.338667,-0.35137 0.05503,0 0.09737,0.008 0.194733,0.0339 l 0.148167,-0.23707 c -0.0635,-0.0127 -0.09737,-0.0169 -0.135467,-0.0169 -0.1016,0 -0.156633,0.0169 -0.254,0.072 -0.105833,0.0593 -0.249766,0.16934 -0.3683,0.2794 -0.207433,0.19897 -0.220133,0.2286 -0.3302,0.66464 l -0.03387,0.13546 c -0.0762,-0.0169 -0.1397,-0.0254 -0.173567,-0.0254 -0.131233,0 -0.4953,0.2286 -0.664633,0.41487 -0.143934,0.1651 -0.334434,0.762 -0.334434,1.0541 0,0.16087 0.08467,0.32597 0.160867,0.32597 0.08043,0 0.2667,-0.1143 0.7112,-0.43604 -0.02117,0.10584 -0.03387,0.2286 -0.03387,0.3048 0,0.0847 0.03387,0.13124 0.09313,0.13124 0.06773,0 0.436033,-0.22437 0.7874,-0.47837 z m -0.8128,-0.1143 c -0.359834,0.254 -0.452967,0.30903 -0.512234,0.30903 -0.05927,0 -0.0889,-0.0635 -0.0889,-0.18626 0,-0.1397 0.0254,-0.30057 0.0762,-0.48684 0.122767,-0.42756 0.287867,-0.63923 0.503767,-0.63923 0.0762,0 0.131233,0.0296 0.220133,0.1143 z" />
      <path
         id="path102"
         style="font-style:normal;font-variant:normal;font-weight:500;font-stretch:normal;font-size:4.23333311px;font-family:'TeX Gyre Chorus';-inkscape-font-specification:'TeX Gyre Chorus, Medium';font-variant-ligatures:normal;font-variant-caps:normal;font-variant-numeric:normal;font-feature-settings:normal;text-align:start;writing-mode:lr-tb;text-anchor:start;stroke-width:0.26458332"
         d="m 27.131334,295.34857 v -0.12277 c -0.156633,0.127 -0.4572,0.38524 -0.6731,0.38524 -0.237067,0 -0.258233,-0.254 -0.254,-0.4191 0.09737,-0.0466 0.512233,-0.35984 0.5969,-0.42334 0.156633,-0.127 0.270933,-0.26246 0.270933,-0.46143 0,-0.1397 -0.08467,-0.24553 -0.2413,-0.24553 -0.1524,0 -0.283633,0.0762 -0.436033,0.19473 -0.372533,0.28787 -0.503766,0.762 -0.503766,1.15993 0,0.25824 0.105833,0.44027 0.364066,0.44027 0.325967,0 0.702733,-0.33443 0.8763,-0.508 z m -0.372533,-0.92287 c 0,0.3048 -0.347134,0.47837 -0.550334,0.635 0.01693,-0.21166 0.1778,-0.8128 0.4191,-0.8128 0.09313,0 0.131234,0.0847 0.131234,0.1778 z" />
      <path
         id="path104"
         style="font-style:normal;font-variant:normal;font-weight:500;font-stretch:normal;font-size:4.23333311px;font-family:'TeX Gyre Chorus';-inkscape-font-specification:'TeX Gyre Chorus, Medium';font-variant-ligatures:normal;font-variant-caps:normal;font-variant-numeric:normal;font-feature-settings:normal;text-align:start;writing-mode:lr-tb;text-anchor:start;stroke-width:0.26458332"
         d="m 28.684305,294.09127 c -0.08043,-0.0254 -0.1143,-0.0339 -0.156633,-0.0339 -0.0762,0 -0.1651,0.0381 -0.2794,0.11854 l -0.249767,0.18203 c 0.0042,-0.0339 0.0127,-0.055 0.0127,-0.0677 0.03387,-0.1397 0.0381,-0.1651 0.0381,-0.18627 0,-0.0254 -0.0254,-0.0466 -0.05503,-0.0466 -0.05503,0 -0.427567,0.18204 -0.6858,0.33867 l -0.0127,0.1143 c 0.2286,-0.11853 0.254,-0.127 0.3048,-0.127 0.05503,0 0.08043,0.0296 0.08043,0.0889 0,0.0593 -0.04233,0.25823 -0.09313,0.44027 l -0.254,0.9271 0.325967,-0.12277 0.3175,-1.2065 c 0.143933,-0.10583 0.2413,-0.14817 0.3556,-0.14817 0.09313,0 0.148166,0.0339 0.224366,0.13124 z" />
    </g>
  </g>
</svg>
